<svg
   xmlns:dc="http://purl.org/dc/elements/1.1/"
   xmlns:cc="http://creativecommons.org/ns#"
   xmlns:rdf="http://www.w3.org/1999/02/22-rdf-syntax-ns#"
   xmlns:svg="http://www.w3.org/2000/svg"
   xmlns="http://www.w3.org/2000/svg"
   xmlns:sodipodi="http://sodipodi.sourceforge.net/DTD/sodipodi-0.dtd"
   xmlns:inkscape="http://www.inkscape.org/namespaces/inkscape"
   width="250.38802"
   height="93.248688"
   id="svg3785"
   version="1.1"
   inkscape:version="0.48.2 r9819"
   sodipodi:docname="defaultIssuer.svg">
  <defs
     id="defs3787" />
  <sodipodi:namedview
     id="base"
     pagecolor="#ffffff"
     bordercolor="#666666"
     borderopacity="1.0"
     inkscape:pageopacity="0.0"
     inkscape:pageshadow="2"
     inkscape:zoom="3.959798"
     inkscape:cx="74.737655"
     inkscape:cy="34.092269"
     inkscape:document-units="px"
     inkscape:current-layer="layer1"
     showgrid="false"
     fit-margin-top="0"
     fit-margin-left="0"
     fit-margin-right="0"
     fit-margin-bottom="0"
     inkscape:window-width="1408"
     inkscape:window-height="826"
     inkscape:window-x="20"
     inkscape:window-y="20"
     inkscape:window-maximized="0" />
  <metadata
     id="metadata3790">
    <rdf:RDF>
      <cc:Work
         rdf:about="">
        <dc:format>image/svg+xml</dc:format>
        <dc:type
           rdf:resource="http://purl.org/dc/dcmitype/StillImage" />
        <dc:title />
      </cc:Work>
    </rdf:RDF>
  </metadata>
  <g
     inkscape:label="Layer 1"
     inkscape:groupmode="layer"
     id="layer1"
     transform="translate(-230.8416,-482.85806)">
    <g
       style="font-size:22px;font-style:normal;font-variant:normal;font-weight:normal;font-stretch:normal;text-align:start;line-height:125%;letter-spacing:0px;word-spacing:0px;writing-mode:lr-tb;text-anchor:start;fill:#294d50;fill-opacity:1;stroke:none;font-family:Open Sans;-inkscape-font-specification:Open Sans"
       id="text5133">
      <path
         d="m 246.73628,570.82159 -5.32812,-13.92187 -0.0859,0 c 0.10026,1.10288 0.15039,2.41342 0.15039,3.93164 l 0,9.99023 -1.68652,0 0,-15.70507 2.75,0 4.97363,12.95507 0.0859,0 5.0166,-12.95507 2.72851,0 0,15.70507 -1.82617,0 0,-10.11914 c -1e-5,-1.16014 0.0501,-2.42056 0.15039,-3.78125 l -0.0859,0 -5.3711,13.90039 -1.47168,0"
         style="line-height:125%;fill:#294d50;fill-opacity:1;font-family:Open Sans;-inkscape-font-specification:Open Sans"
         id="path3768"
         inkscape:connector-curvature="0" />
      <path
         d="m 266.60933,570.82159 -0.35449,-1.67578 -0.0859,0 c -0.58725,0.73763 -1.17449,1.23894 -1.76172,1.50391 -0.58008,0.25781 -1.30697,0.38672 -2.18066,0.38672 -1.16732,0 -2.08399,-0.30078 -2.75,-0.90235 -0.65886,-0.60156 -0.98829,-1.45735 -0.98828,-2.56738 -10e-6,-2.3776 1.90136,-3.62369 5.7041,-3.73828 l 1.99804,-0.0645 0,-0.73047 c 0,-0.92382 -0.20053,-1.60416 -0.60156,-2.04102 -0.39389,-0.444 -1.02767,-0.666 -1.90137,-0.66601 -0.98112,1e-5 -2.09115,0.30079 -3.33007,0.90234 l -0.54786,-1.36426 c 0.58008,-0.31509 1.21387,-0.56216 1.90137,-0.74121 0.69466,-0.17902 1.38932,-0.26854 2.08399,-0.26855 1.40363,1e-5 2.44204,0.31153 3.11523,0.93457 0.68033,0.62305 1.0205,1.62208 1.02051,2.99707 l 0,8.03515 -1.32129,0 m -4.02832,-1.25683 c 1.11002,0 1.98014,-0.30436 2.61035,-0.91309 0.63736,-0.60872 0.95605,-1.46093 0.95606,-2.55664 l 0,-1.06347 -1.78321,0.0752 c -1.41797,0.0501 -2.44206,0.27214 -3.07226,0.66602 -0.62305,0.38672 -0.93458,0.99186 -0.93457,1.81543 -10e-6,0.64453 0.19335,1.13509 0.58007,1.47168 0.39388,0.33659 0.94173,0.50488 1.64356,0.50488"
         style="line-height:125%;fill:#294d50;fill-opacity:1;font-family:Open Sans;-inkscape-font-specification:Open Sans"
         id="path3770"
         inkscape:connector-curvature="0" />
      <path
         d="m 273.37691,564.79523 c 0.30794,-0.43685 0.77701,-1.00976 1.40722,-1.71875 l 3.80274,-4.02832 2.11621,0 -4.76953,5.0166 5.10254,6.75683 -2.15918,0 -4.15723,-5.56445 -1.34277,1.16016 0,4.40429 -1.76172,0 0,-16.71484 1.76172,0 0,8.86231 c -1e-5,0.39388 -0.0287,1.00261 -0.0859,1.82617 l 0.0859,0"
         style="line-height:125%;fill:#294d50;fill-opacity:1;font-family:Open Sans;-inkscape-font-specification:Open Sans"
         id="path3772"
         inkscape:connector-curvature="0" />
      <path
         d="m 287.71773,571.03644 c -1.74024,0 -3.11524,-0.52995 -4.125,-1.58985 -1.00261,-1.05989 -1.50391,-2.53157 -1.50391,-4.41503 0,-1.89778 0.46549,-3.40527 1.39649,-4.52247 0.93814,-1.11717 2.19498,-1.67577 3.7705,-1.67578 1.47526,10e-6 2.64257,0.48699 3.50196,1.46094 0.85936,0.96681 1.28905,2.24513 1.28906,3.83496 l 0,1.12793 -8.11035,0 c 0.0358,1.38217 0.38313,2.43132 1.04199,3.14746 0.66601,0.71615 1.60058,1.07422 2.80371,1.07422 1.26757,0 2.52082,-0.26497 3.75977,-0.79492 l 0,1.58984 c -0.63022,0.27214 -1.2282,0.4655 -1.79395,0.58008 -0.5586,0.12175 -1.23536,0.18262 -2.03027,0.18262 m -0.4834,-10.70996 c -0.94532,1e-5 -1.70085,0.30795 -2.2666,0.92383 -0.5586,0.61589 -0.88803,1.4681 -0.98828,2.55664 l 6.15527,0 c -1e-5,-1.12435 -0.25066,-1.98372 -0.75195,-2.57813 -0.50131,-0.60155 -1.21746,-0.90233 -2.14844,-0.90234"
         style="line-height:125%;fill:#294d50;fill-opacity:1;font-family:Open Sans;-inkscape-font-specification:Open Sans"
         id="path3774"
         inkscape:connector-curvature="0" />
      <path
         d="m 300.44722,558.83331 c 0.52278,10e-6 0.99185,0.043 1.40723,0.12891 l -0.24707,1.6543 c -0.48699,-0.10742 -0.91668,-0.16113 -1.28907,-0.16114 -0.95248,10e-6 -1.76888,0.38673 -2.44922,1.16016 -0.67318,0.77345 -1.00976,1.73666 -1.00976,2.88965 l 0,6.3164 -1.7832,0 0,-11.77343 1.47168,0 0.2041,2.18066 0.0859,0 c 0.43685,-0.76626 0.96322,-1.35708 1.57911,-1.77246 0.61588,-0.41535 1.29263,-0.62304 2.03027,-0.62305"
         style="line-height:125%;fill:#294d50;fill-opacity:1;font-family:Open Sans;-inkscape-font-specification:Open Sans"
         id="path3776"
         inkscape:connector-curvature="0" />
      <path
         d="m 319.998,559.69269 c -10e-6,1.58985 -0.54428,2.81446 -1.63281,3.67383 -1.08139,0.85222 -2.63185,1.27832 -4.65137,1.27832 l -1.84765,0 0,6.17675 -1.82618,0 0,-15.70507 4.07129,0 c 3.92447,10e-6 5.88671,1.5254 5.88672,4.57617 m -8.13183,3.38379 1.64355,0 c 1.61848,0 2.78938,-0.26139 3.5127,-0.78418 0.72329,-0.52278 1.08495,-1.36067 1.08496,-2.51367 -10e-6,-1.0384 -0.34018,-1.81184 -1.02051,-2.32032 -0.68035,-0.50845 -1.74024,-0.76268 -3.17969,-0.76269 l -2.04101,0 0,6.38086"
         style="line-height:125%;fill:#294d50;fill-opacity:1;font-family:Open Sans;-inkscape-font-specification:Open Sans"
         id="path3778"
         inkscape:connector-curvature="0" />
      <path
         d="m 330.24605,570.82159 -0.35449,-1.67578 -0.0859,0 c -0.58725,0.73763 -1.17449,1.23894 -1.76172,1.50391 -0.58008,0.25781 -1.30697,0.38672 -2.18066,0.38672 -1.16733,0 -2.08399,-0.30078 -2.75,-0.90235 -0.65886,-0.60156 -0.98829,-1.45735 -0.98829,-2.56738 0,-2.3776 1.90137,-3.62369 5.70411,-3.73828 l 1.99804,-0.0645 0,-0.73047 c -10e-6,-0.92382 -0.20053,-1.60416 -0.60156,-2.04102 -0.39389,-0.444 -1.02768,-0.666 -1.90137,-0.66601 -0.98112,1e-5 -2.09115,0.30079 -3.33008,0.90234 l -0.54785,-1.36426 c 0.58008,-0.31509 1.21387,-0.56216 1.90137,-0.74121 0.69466,-0.17902 1.38932,-0.26854 2.08398,-0.26855 1.40364,1e-5 2.44205,0.31153 3.11524,0.93457 0.68033,0.62305 1.0205,1.62208 1.02051,2.99707 l 0,8.03515 -1.32129,0 m -4.02832,-1.25683 c 1.11002,0 1.98013,-0.30436 2.61035,-0.91309 0.63736,-0.60872 0.95605,-1.46093 0.95605,-2.55664 l 0,-1.06347 -1.7832,0.0752 c -1.41797,0.0501 -2.44206,0.27214 -3.07226,0.66602 -0.62305,0.38672 -0.93458,0.99186 -0.93458,1.81543 0,0.64453 0.19336,1.13509 0.58008,1.47168 0.39388,0.33659 0.94173,0.50488 1.64356,0.50488"
         style="line-height:125%;fill:#294d50;fill-opacity:1;font-family:Open Sans;-inkscape-font-specification:Open Sans"
         id="path3780"
         inkscape:connector-curvature="0" />
      <path
         d="m 340.623,558.83331 c 0.52278,10e-6 0.99185,0.043 1.40723,0.12891 l -0.24707,1.6543 c -0.48699,-0.10742 -0.91668,-0.16113 -1.28907,-0.16114 -0.95248,10e-6 -1.76888,0.38673 -2.44921,1.16016 -0.67318,0.77345 -1.00977,1.73666 -1.00977,2.88965 l 0,6.3164 -1.7832,0 0,-11.77343 1.47168,0 0.2041,2.18066 0.0859,0 c 0.43684,-0.76626 0.96321,-1.35708 1.5791,-1.77246 0.61588,-0.41535 1.29263,-0.62304 2.03027,-0.62305"
         style="line-height:125%;fill:#294d50;fill-opacity:1;font-family:Open Sans;-inkscape-font-specification:Open Sans"
         id="path3782"
         inkscape:connector-curvature="0" />
      <path
         d="m 348.03511,569.56476 c 0.3151,0 0.61946,-0.0215 0.91309,-0.0644 0.29361,-0.0501 0.52636,-0.10026 0.69824,-0.1504 l 0,1.36426 c -0.19337,0.0931 -0.47983,0.1683 -0.85938,0.22559 -0.3724,0.0644 -0.70899,0.0967 -1.00976,0.0967 -2.27735,0 -3.41602,-1.19955 -3.41602,-3.59863 l 0,-7.00391 -1.68652,0 0,-0.85938 1.68652,-0.74121 0.75196,-2.51367 1.03125,0 0,2.72852 3.41601,0 0,1.38574 -3.41601,0 0,6.92871 c -1e-5,0.70899 0.16829,1.25326 0.50488,1.63281 0.33658,0.37956 0.7985,0.56934 1.38574,0.56934"
         style="line-height:125%;fill:#294d50;fill-opacity:1;font-family:Open Sans;-inkscape-font-specification:Open Sans"
         id="path3784"
         inkscape:connector-curvature="0" />
      <path
         d="m 350.14058,559.04816 1.91211,0 2.57812,6.71386 c 0.56575,1.53256 0.91666,2.639 1.05274,3.31934 l 0.0859,0 c 0.0931,-0.36523 0.28645,-0.98828 0.58007,-1.86914 0.30078,-0.88802 1.27474,-3.60937 2.92188,-8.16406 l 1.91211,0 -5.05957,13.40625 c -0.50131,1.32486 -1.08855,2.26301 -1.76172,2.81445 -0.66602,0.55859 -1.48601,0.83789 -2.45996,0.83789 -0.54427,0 -1.08138,-0.0609 -1.61133,-0.18262 l 0,-1.42871 c 0.39388,0.0859 0.83431,0.1289 1.32129,0.12891 1.22461,-10e-6 2.0983,-0.6875 2.62109,-2.0625 l 0.65528,-1.67578 -4.74805,-11.83789"
         style="line-height:125%;fill:#294d50;fill-opacity:1;font-family:Open Sans;-inkscape-font-specification:Open Sans"
         id="path3786"
         inkscape:connector-curvature="0" />
      <path
         d="m 381.00288,570.82159 -1.82617,0 0,-7.39062 -8.27148,0 0,7.39062 -1.82617,0 0,-15.70507 1.82617,0 0,6.68164 8.27148,0 0,-6.68164 1.82617,0 0,15.70507"
         style="line-height:125%;fill:#294d50;fill-opacity:1;font-family:Open Sans;-inkscape-font-specification:Open Sans"
         id="path3788"
         inkscape:connector-curvature="0" />
      <path
         d="m 390.02632,571.03644 c -1.74024,0 -3.11524,-0.52995 -4.125,-1.58985 -1.0026,-1.05989 -1.50391,-2.53157 -1.5039,-4.41503 -1e-5,-1.89778 0.46549,-3.40527 1.39648,-4.52247 0.93815,-1.11717 2.19498,-1.67577 3.77051,-1.67578 1.47525,10e-6 2.64257,0.48699 3.50195,1.46094 0.85936,0.96681 1.28905,2.24513 1.28906,3.83496 l 0,1.12793 -8.11035,0 c 0.0358,1.38217 0.38314,2.43132 1.04199,3.14746 0.66601,0.71615 1.60058,1.07422 2.80371,1.07422 1.26757,0 2.52083,-0.26497 3.75977,-0.79492 l 0,1.58984 c -0.63022,0.27214 -1.2282,0.4655 -1.79395,0.58008 -0.5586,0.12175 -1.23535,0.18262 -2.03027,0.18262 m -0.4834,-10.70996 c -0.94531,1e-5 -1.70085,0.30795 -2.2666,0.92383 -0.5586,0.61589 -0.88802,1.4681 -0.98828,2.55664 l 6.15527,0 c -10e-6,-1.12435 -0.25066,-1.98372 -0.75195,-2.57813 -0.50131,-0.60155 -1.21745,-0.90233 -2.14844,-0.90234"
         style="line-height:125%;fill:#294d50;fill-opacity:1;font-family:Open Sans;-inkscape-font-specification:Open Sans"
         id="path3790"
         inkscape:connector-curvature="0" />
      <path
         d="m 402.75581,558.83331 c 0.52278,10e-6 0.99186,0.043 1.40723,0.12891 l -0.24707,1.6543 c -0.48699,-0.10742 -0.91667,-0.16113 -1.28906,-0.16114 -0.95248,10e-6 -1.76889,0.38673 -2.44922,1.16016 -0.67318,0.77345 -1.00977,1.73666 -1.00977,2.88965 l 0,6.3164 -1.7832,0 0,-11.77343 1.47168,0 0.2041,2.18066 0.0859,0 c 0.43684,-0.76626 0.96321,-1.35708 1.5791,-1.77246 0.61588,-0.41535 1.29264,-0.62304 2.03027,-0.62305"
         style="line-height:125%;fill:#294d50;fill-opacity:1;font-family:Open Sans;-inkscape-font-specification:Open Sans"
         id="path3792"
         inkscape:connector-curvature="0" />
      <path
         d="m 416.09761,564.92413 c -10e-6,1.91928 -0.48341,3.4196 -1.45019,4.50098 -0.96681,1.07422 -2.30242,1.61133 -4.00684,1.61133 -1.05274,0 -1.98731,-0.24707 -2.80371,-0.74121 -0.81641,-0.49414 -1.44662,-1.20313 -1.89063,-2.12696 -0.44401,-0.92382 -0.66601,-2.0052 -0.66601,-3.24414 0,-1.91926 0.47981,-3.41242 1.43945,-4.47949 0.95963,-1.07421 2.29166,-1.61132 3.99609,-1.61133 1.64713,10e-6 2.9541,0.54787 3.9209,1.64356 0.97395,1.09571 1.46093,2.57813 1.46094,4.44726 m -8.96973,0 c 0,1.50391 0.30078,2.64975 0.90235,3.4375 0.60156,0.78777 1.48599,1.18165 2.65332,1.18164 1.16731,10e-6 2.05175,-0.39029 2.65332,-1.17089 0.60871,-0.78776 0.91307,-1.93717 0.91308,-3.44825 -1e-5,-1.49673 -0.30437,-2.63182 -0.91308,-3.40527 -0.60157,-0.78059 -1.49317,-1.17089 -2.67481,-1.1709 -1.16732,1e-5 -2.04818,0.38315 -2.64257,1.14942 -0.59441,0.76628 -0.89161,1.90853 -0.89161,3.42675"
         style="line-height:125%;fill:#294d50;fill-opacity:1;font-family:Open Sans;-inkscape-font-specification:Open Sans"
         id="path3794"
         inkscape:connector-curvature="0" />
    </g>
    <g
       style="font-size:48px;font-style:normal;font-variant:normal;font-weight:normal;font-stretch:normal;line-height:125%;letter-spacing:0px;word-spacing:0px;fill:#093d5f;fill-opacity:1;stroke:none;font-family:Open Sans;-inkscape-font-specification:Open Sans"
       id="text4621">
      <path
         d="m 326.92477,485.75851 c 0,-1.944 -1.872,-2.448 -4.032,-1.872 -2.376,0.72 -5.184,4.68 -5.832,5.76 -13.17599,1.656 -37.368,8.42402 -40.032,25.056 -1.368,8.49599 5.32801,13.752 13.032,11.088 6.048,-2.16 10.584,-9.216 8.208,-14.76 -1.152,-1.44 -2.664,-0.144 -1.512,0.576 1.08,1.152 1.07999,9.72 -6.624,12.456 -6.04799,2.232 -9.288,-2.30401 -8.28,-8.928 2.304,-13.96798 22.39201,-21.744 33.984,-23.616 -1.584,2.52 -6.48,10.72801 -11.52,21.888 -6.76799,14.97599 -19.08002,46.36801 -44.352,51.984 -11.59199,2.52 -30.59999,-3.45601 -26.064,-19.224 1.656,-5.90399 6.552,-10.296 9.072,-11.304 0.792,-0.36 1.584,-1.08 0.072,-1.008 -2.304,0.072 -8.28,4.46401 -10.224,9.144 -7.55999,17.99998 7.56002,27.504 28.008,24.696 9.35999,-1.296 24.76801,-8.78401 33.192,-21.888 12.88799,-20.01598 14.61601,-38.59201 23.976,-54.576 0.648,0 2.232,-0.576 3.096,-0.576 2.808,-0.864 5.76,-1.944 5.832,-4.896 m -3.456,0.216 c 0.792,0 2.232,2.376 -4.176,3.456 1.224,-1.296 3.384,-3.816 4.176,-3.456"
         style="font-size:72px;text-align:start;line-height:125%;writing-mode:lr-tb;text-anchor:start;fill:#093d5f;fill-opacity:1;font-family:Great Vibes;-inkscape-font-specification:Great Vibes"
         id="path3755"
         inkscape:connector-curvature="0" />
      <path
         d="m 388.59727,496.70251 c 4.464,-3.672 2.736,-9.576 -2.376,-12.096 -5.18399,-2.592 -15.91201,-2.16 -23.112,0.36 -10.51199,3.744 -17.06399,14.40001 -6.336,21.528 5.4,3.6 15.04801,6.192 19.512,9.792 8.71199,7.05599 3.59999,19.44001 -8.496,25.776 -14.39998,7.48799 -40.248,5.61598 -40.104,-12.24 0.072,-4.60799 1.44,-9.432 4.032,-13.464 1.296,-2.088 3.024,-3.888 4.968,-5.4 2.376,-1.8 0.288,-1.512 -0.72,-1.08 -7.05599,3.312 -12.672,13.10401 -12.312,19.944 1.224,20.30398 31.89602,22.31999 48.168,12.6 12.16799,-7.27199 21.81599,-20.80801 7.128,-29.88 -5.32799,-3.312 -12.6,-5.832 -16.992,-8.496 -9.71999,-5.97599 -4.67999,-14.04 3.888,-17.136 23.18398,-8.27999 27.28799,9.576 18.288,10.656 -2.376,0.288 -2.304,1.944 -0.36,1.44 2.088,-0.576 3.672,-1.368 4.824,-2.304"
         style="font-size:72px;text-align:start;line-height:125%;writing-mode:lr-tb;text-anchor:start;fill:#093d5f;fill-opacity:1;font-family:Great Vibes;-inkscape-font-specification:Great Vibes"
         id="path3757"
         inkscape:connector-curvature="0" />
      <path
         d="m 430.2414,528.23851 c 0.72,-1.44 -0.432,-1.944 -1.008,-0.648 -1.512,3.312 -6.12001,12.456 -9.864,12.456 -0.936,0 -1.728,-0.648 -1.224,-3.6 1.008,-5.03999 8.64,-18.576 8.64,-18.576 -2.376,-0.864 -9.86401,3.672 -13.32,6.768 -2.16,1.944 -4.536,4.68 -5.976,6.48 1.728,-3.528 3.96,-7.056 5.256,-10.08 0.648,-1.44 0.216,-2.664 -1.08,-3.168 -2.448,-0.864 -7.05601,3.672 -10.512,6.768 -2.232,1.944 -4.536,4.68 -5.976,6.48 2.59199,-5.18399 6.552,-12.384 8.712,-13.536 -1.008,0.216 -2.088,-0.216 -3.024,-0.288 -2.304,-0.144 -3.24001,1.08 -5.112,4.536 -3.528,6.47999 -6.33601,13.17601 -9.792,20.016 0.72,-0.432 1.368,-0.36 2.376,-0.432 1.584,0 2.232,-0.072 2.736,-1.152 4.10399,-7.91999 7.488,-11.808 9.936,-14.04 7.55999,-7.05599 5.25599,-1.79999 2.88,3.096 -1.224,2.664 -2.52,5.04 -3.024,8.208 -0.36,2.088 0.648,3.96 2.304,3.96 0.936,-4.31999 7.056,-12.384 10.152,-15.264 5.54399,-5.18399 6.84,-3.24 5.112,-0.432 -2.016,3.24 -3.384,5.688 -3.96,7.56 -2.16,6.69599 1.296,8.424 3.888,8.424 5.47199,0 9.72,-9.144 11.88,-13.536"
         style="font-size:72px;text-align:start;line-height:125%;writing-mode:lr-tb;text-anchor:start;fill:#093d5f;fill-opacity:1;font-family:Great Vibes;-inkscape-font-specification:Great Vibes"
         id="path3759"
         inkscape:connector-curvature="0" />
      <path
         d="m 440.3799,511.39051 c 0.288,-1.656 -0.864,-2.952 -2.52,-2.952 -1.584,0 -3.168,1.296 -3.456,2.952 -0.216,1.656 0.864,2.952 2.52,2.952 1.656,0 3.168,-1.296 3.456,-2.952 m -10.152,23.976 c 0.144,-0.504 0.864,-2.088 0.864,-2.088 l 5.76,-13.464 c 0.792,-1.728 0.79199,-2.52 -1.512,-2.52 l -3.96,0.072 c 0.288,0.36 1.296,1.656 0.72,3.024 l -4.608,11.736 c -1.512,3.744 -1.512,9.36 3.888,9.36 5.32799,0 9.432,-9.144 11.304,-13.176 0.648,-1.44 -0.36,-1.944 -0.936,-0.648 -2.016,4.032 -4.39201,8.496 -6.768,10.872 -0.792,0.72 -2.16,1.512 -3.24,1.368 -2.016,-0.144 -2.16,-2.16 -1.512,-4.536"
         style="font-size:72px;text-align:start;line-height:125%;writing-mode:lr-tb;text-anchor:start;fill:#093d5f;fill-opacity:1;font-family:Great Vibes;-inkscape-font-specification:Great Vibes"
         id="path3761"
         inkscape:connector-curvature="0" />
      <path
         d="m 459.51952,514.12651 -3.456,0 c 1.08,-2.016 2.088,-4.032 3.096,-6.192 5.328,-11.51999 -2.448,-12.74399 -7.416,-4.032 -1.8,3.096 -3.6,6.624 -5.256,10.224 l -4.32,0 c -0.792,0 -0.936,1.584 -0.144,1.584 l 3.744,0 c -2.304,5.616 -4.968,13.46401 -5.616,18.36 -1.08,7.91999 6.04801,9.144 9.936,5.4 2.664,-2.664 3.888,-4.60801 7.056,-11.232 0.72,-1.44 -0.36,-1.728 -0.936,-0.432 -1.944,3.888 -4.32,8.424 -7.632,10.872 -2.376,1.728 -5.688,1.08 -4.608,-3.744 0,0 1.008,-5.472 1.656,-7.344 4.248,-3.88799 7.128,-7.704 9.576,-11.88 l 4.176,0 c 0.72,0 0.864,-1.584 0.144,-1.584 m -1.44,-7.344 c -1.008,2.376 -2.232,4.896 -3.6,7.344 l -3.6,0 c 1.8,-4.10399 3.384,-8.064 5.112,-10.512 4.464,-6.26399 3.456,0.144 2.088,3.168 m -4.536,8.928 c -2.088,3.456 -4.536,6.768 -7.272,9.576 1.008,-2.52 2.376,-6.048 3.888,-9.576 l 3.384,0"
         style="font-size:72px;text-align:start;line-height:125%;writing-mode:lr-tb;text-anchor:start;fill:#093d5f;fill-opacity:1;font-family:Great Vibes;-inkscape-font-specification:Great Vibes"
         id="path3763"
         inkscape:connector-curvature="0" />
      <path
         d="m 480.99127,528.31051 c 0.72,-1.512 -0.36,-2.016 -1.008,-0.72 -1.512,3.096 -6.408,12.888 -9.72,12.672 -0.936,-0.072 -1.656,-0.864 -1.08,-3.816 0.936,-5.03999 8.64,-18.576 8.64,-18.576 -2.448,-0.864 -9.864,3.672 -13.32,6.768 -1.944,1.656 -3.888,3.888 -5.832,6.336 5.904,-12.02399 15.264,-29.664 18.432,-32.904 -1.008,0.144 -2.088,-0.216 -3.024,-0.288 -2.304,-0.144 -3.456,1.512 -5.112,4.536 -6.98399,12.88799 -13.968,27.57601 -19.8,39.672 0.72,-0.432 1.368,-0.36 2.448,-0.432 1.512,0 2.16,-0.072 2.664,-1.08 4.104,-7.99199 7.632,-12.024 10.08,-14.256 5.544,-5.18399 6.84,-3.24 5.112,-0.432 -2.016,3.24 -3.384,5.688 -3.96,7.56 -2.16,6.69599 1.296,8.424 3.816,8.424 5.328,0 9.288,-8.496 11.664,-13.464"
         style="font-size:72px;text-align:start;line-height:125%;writing-mode:lr-tb;text-anchor:start;fill:#093d5f;fill-opacity:1;font-family:Great Vibes;-inkscape-font-specification:Great Vibes"
         id="path3765"
         inkscape:connector-curvature="0" />
    </g>
  </g>
</svg>
